# xmcd
#
# Track frame offsets:
#	150
#	12467
#	24410
#	36192
#	47129
#	63791
#	74727
#	87659
#	96314
#	108481
#	119236
#	129926
#	140693
#	153267
#	165713
#	177276
#	189925
#	200078
#
# Disc length: 2808 seconds
#
# Revision: 1
# Processed by: cddbd v1.5.2PL0 Copyright (c) Steve Scherf et al.
# Submitted via: audiograbber 1.83.01
#
DISCID=090af612
DTITLE=Various Artist - Country Legends Vol. 2
DYEAR=2006
DGENRE=Country
TTITLE0=Charlie Rich - Behind Closed Doors
TTITLE1=Frankie Laine - High Noon (Do Not Forsake Me)
TTITLE2=Don Williams - Tulsa Time
TTITLE3=Roy Drusky - I Can't Help It (If I'm Still in Love With You)
TTITLE4=Lynn Anderson - Blue Bayou
TTITLE5=Buck Owens - Above and Beyond
TTITLE6=Loretta Lynn - Let Your Love Flow
TTITLE7=Freddy Fender - Jambalaya (On the Bayou)
TTITLE8=Johnny Cash - Walk the Line
TTITLE9=Patsy Cline - I Cried All the Way to the Alter
TTITLE10=George Jones - Once a Day
TTITLE11=Stonewall Jackson - Things to Think About
TTITLE12=Kenny Rogers - Reuben James
TTITLE13=Willie Nelson - Shelter of Your Arms
TTITLE14=Charley Pride - Louisana Man
TTITLE15=Anne Murray - All the Time
TTITLE16=Billie Jo Spears - It Makes No Difference Now
TTITLE17=Jim Reeves - Peace in the Valley
EXTD=YEAR: 2006
EXTT0=
EXTT1=
EXTT2=
EXTT3=
EXTT4=
EXTT5=
EXTT6=
EXTT7=
EXTT8=
EXTT9=
EXTT10=
EXTT11=
EXTT12=
EXTT13=
EXTT14=
EXTT15=
EXTT16=
EXTT17=
PLAYORDER=
